<?xml version="1.0" encoding="UTF-8"?><svg id="Layer_1" xmlns="http://www.w3.org/2000/svg" viewBox="0 0 1421.11 598.92"><g><path d="m596.61,99.79l-35.98,185.02h-16.69l-68.22-89.56-17.03,87.86h-49.6l35.98-184.91h16.91l67.88,89.22,17.03-87.63h49.72Z"/><path d="m669.24,145.19l-4.99,25.54h52.1l-7.83,40.52h-52.1l-5.11,26.22h64.36l-8.85,45.52h-113.96l35.53-182.98h113.96l-8.85,45.18h-64.25Z"/><path d="m851.65,261.65h-62.09l-12.26,21.34h-56.98l115.89-185.25h26.22l44.04,185.25h-50.63l-4.2-21.34Zm-7.04-35.53l-8.85-44.72-25.77,44.72h34.62Z"/><path d="m1037.34,211.6l37.91,71.4h-53.46l-33.6-70.15-13.62,70.15h-49.49l35.3-182.98h61.41c37.12,0,63.45,24.52,56.98,62.77-3.97,23.72-19.86,42.11-41.43,48.81Zm-42.91-31.78l13.17.11c12.15.23,21.11-6.7,22.7-17.25,1.59-10.56-5.45-18.39-15.78-18.39h-13.17l-6.92,35.53Z"/><path d="m1240.18,227.71c-4.99,31.33-31.33,55.28-70.83,55.28h-76.51l35.53-182.98h60.16c32.46,0,51.65,20.32,47.11,47.67-2.95,17.25-13.28,29.51-25.54,32.24,17.71.34,34.85,17.82,30.08,47.79Zm-64.36-23.5l-19.18-.11-6.7,34.73h18.62c14.19,0,22.82-6.58,24.75-16.23,2.27-10.9-5.33-18.39-17.48-18.39Zm.91-61.98h-8.06l-5.56,28.72h8.4c8.85,0,18.5-3.18,20.66-14.08,1.7-8.51-4.09-14.64-15.44-14.64Z"/><path d="m1280.47,207.74l-31.9-107.72h52.44l11.46,56.75,32.92-56.75h58l-73.44,106.93-14.76,76.05h-49.49l14.76-75.26Z"/><path d="m596.61,334.98l-35.98,185.02h-16.69l-68.22-89.56-17.03,87.86h-49.6l35.98-184.91h16.91l67.88,89.22,17.03-87.63h49.72Z"/><path d="m602.84,426.92c7.61-57.89,54.37-97.51,109.76-94.44,52.21,2.84,82.86,42.11,75.6,96.03-7.83,58.12-55.05,96.71-109.88,93.76-51.65-2.84-82.64-41.43-75.48-95.35Zm135.87.68c4.65-28.38-9.99-48.92-34.28-49.6-25.54-.91-47.45,20.2-52.1,48.92-4.43,27.24,8.97,48.81,34.39,49.6,26.33.91,47.45-21.11,51.99-48.92Z"/><path d="m805.11,335.21h49.49l6.92,83.77,50.97-83.43h4.88l18.5,83.2,39.16-83.54h55.39l-92.96,184.11h-18.5l-20.09-89.11-54.14,89.11h-18.16l-21.45-184.11Z"/></g><g><path d="m148.81,159.5c-.68,0-1.37-.22-1.95-.67-1.39-1.07-1.64-3.07-.56-4.46,12.75-16.42,31.96-25.83,52.72-25.83,1.76,0,3.18,1.42,3.18,3.18s-1.42,3.18-3.18,3.18c-18.78,0-36.16,8.52-47.7,23.37-.62.81-1.57,1.23-2.51,1.23Z"/><path d="m135.48,198.43c-1.76,0-3.18-1.42-3.18-3.18,0-9.18,1.83-18.08,5.45-26.45.69-1.61,2.58-2.37,4.18-1.66,1.61.7,2.35,2.57,1.66,4.18-3.27,7.57-4.93,15.62-4.93,23.93,0,1.76-1.42,3.18-3.18,3.18Z"/><path d="m198.89,96.29c-54.57,0-98.97,44.39-98.97,98.96s44.4,98.97,98.97,98.97,98.97-44.4,98.97-98.97-44.4-98.96-98.97-98.96Zm.29,182.18c-45.71.27-83.26-37.26-83.3-83.25-.04-45.79,36.91-82.96,82.68-83.18,46.05-.23,83.32,36.72,83.57,82.85.25,45.9-36.88,83.32-82.96,83.59Z"/><path d="m350.28,94.14c-24.68-38.39-59.26-64-103.39-76-11.96-3.25-24.44-4.57-36.68-6.78h-22.39c-1.45.29-2.88.75-4.34.85-18.94,1.36-37.18,5.86-54.55,13.36C54,57.92,10.76,132.98,20.42,215.97c4.91,42.22,17.5,82.3,33.69,121.25,35.96,86.46,84.27,165.97,138.34,242.13,5.02,7.07,9.45,6.92,14.15-.39,40.59-63.23,78.52-127.98,111.31-195.66,21.46-44.3,40.67-89.43,53.17-137.25,14.03-53.65,9.59-104.62-20.8-151.9Zm-272.37,30.45c-5.8,0-10.5-4.7-10.5-10.5s4.7-10.5,10.5-10.5,10.5,4.7,10.5,10.5-4.7,10.5-10.5,10.5Zm120.98,182.35c-61.59,0-111.69-50.1-111.69-111.69s50.1-111.68,111.69-111.68,111.69,50.1,111.69,111.68-50.1,111.69-111.69,111.69Z"/></g></svg>